<?xml version="1.0" standalone="no"?>
<!DOCTYPE svg PUBLIC "-//W3C//DTD SVG 20010904//EN"
 "http://www.w3.org/TR/2001/REC-SVG-20010904/DTD/svg10.dtd">
<svg version="1.0" xmlns="http://www.w3.org/2000/svg"
 width="8334.000000pt" height="2992.000000pt" viewBox="0 0 8334.000000 2992.000000"
 preserveAspectRatio="xMidYMid meet">

<g transform="translate(0.000000,2992.000000) scale(0.100000,-0.100000)"
fill="#000000" stroke="none">
<path d="M75455 28704 c-346 -49 -582 -149 -812 -343 -166 -141 -285 -307
-432 -605 -279 -566 -446 -1050 -525 -1521 -168 -1008 -254 -2187 -227 -3112
23 -758 67 -1209 201 -2043 38 -239 124 -786 190 -1215 275 -1781 439 -2663
661 -3560 178 -717 365 -1394 468 -1697 113 -333 270 -690 380 -868 260 -418
668 -690 1128 -751 111 -15 362 -6 463 16 185 40 367 117 530 223 242 157 490
420 754 802 510 736 808 1353 1234 2555 39 110 191 535 337 945 1061 2967
1618 4553 1807 5140 419 1302 608 2529 585 3790 -8 395 -33 608 -106 891 -113
432 -297 784 -536 1025 -123 123 -216 190 -344 245 -146 62 -234 80 -421 86
-151 5 -181 3 -354 -26 -365 -60 -711 -134 -1296 -276 -168 -41 -352 -83 -410
-94 -465 -88 -964 -87 -1430 4 -149 30 -238 53 -815 219 -527 151 -601 167
-830 171 -93 2 -183 1 -200 -1z"/>
<path d="M66715 26064 c-33 -2 -159 -8 -280 -14 -649 -32 -1438 -111 -2160
-216 -277 -40 -427 -81 -600 -165 -430 -207 -665 -571 -665 -1029 0 -104 8
-166 45 -375 13 -77 36 -243 50 -370 39 -345 45 -379 186 -1034 235 -1098 428
-1906 521 -2185 117 -355 334 -622 622 -768 217 -110 449 -157 816 -167 229
-7 250 -9 317 -33 89 -32 158 -71 178 -102 22 -34 151 -384 190 -516 69 -235
83 -369 66 -650 -31 -507 -90 -862 -491 -2945 -519 -2698 -617 -3300 -945
-5815 -53 -404 -118 -901 -145 -1105 -63 -478 -59 -429 -32 -433 12 -2 22 -9
22 -15 0 -30 41 -605 50 -712 37 -416 101 -699 205 -904 152 -303 403 -531
730 -664 769 -313 1782 -417 2830 -291 553 66 1321 244 1965 454 381 124 667
365 839 707 221 440 319 1391 236 2277 -40 420 -91 721 -334 1961 -239 1220
-258 1324 -776 4275 -434 2473 -491 2789 -606 3370 -149 752 -199 1038 -206
1187 l-6 122 34 34 c46 46 100 52 325 36 215 -14 540 -7 689 16 215 33 438
101 606 185 282 142 551 415 700 711 222 442 323 1078 305 1919 -9 426 -25
841 -37 945 -59 523 -324 921 -839 1258 -423 276 -1053 555 -1653 731 -539
158 -1068 253 -1687 301 -181 15 -921 28 -1065 19z"/>
<path d="M55115 24844 c-703 -72 -1373 -322 -2227 -831 -200 -119 -293 -189
-405 -307 -191 -200 -308 -426 -359 -692 -13 -69 -15 -124 -11 -244 8 -252 54
-382 220 -633 177 -266 266 -438 512 -983 277 -613 404 -924 524 -1281 158
-470 230 -801 296 -1358 20 -165 79 -626 131 -1025 206 -1578 258 -2070 306
-2930 16 -286 16 -1658 -1 -2070 -50 -1247 -171 -2029 -455 -2947 -76 -244
-182 -554 -404 -1178 -262 -739 -373 -1089 -487 -1546 -64 -255 -132 -585
-166 -807 -21 -139 -22 -161 -11 -249 60 -470 536 -1119 990 -1347 174 -87
535 -227 807 -311 914 -283 1837 -350 2835 -204 1202 176 2381 556 3595 1159
375 186 574 299 860 487 1128 744 1780 1607 1989 2635 59 289 116 851 135
1338 17 407 40 1921 61 4055 7 642 15 1030 25 1170 56 814 43 1655 -41 2490
-72 726 -213 1555 -670 3945 -212 1110 -234 1213 -304 1415 -81 236 -175 397
-324 552 -107 113 -207 189 -331 255 -266 140 -518 173 -875 114 -540 -90
-1168 -255 -1362 -358 -216 -116 -442 -346 -665 -678 -505 -754 -664 -1531
-488 -2395 14 -66 57 -237 95 -380 186 -685 196 -741 234 -1320 83 -1250 122
-2310 113 -3078 -5 -458 -13 -564 -63 -837 -85 -462 -250 -884 -491 -1255 -97
-149 -139 -201 -205 -250 -79 -59 -128 -73 -180 -49 -86 38 -159 153 -197 305
-54 215 -52 159 -61 2214 -7 1716 -10 1996 -34 2755 -63 2066 -78 2405 -126
2800 -121 985 -427 1939 -893 2776 -353 634 -757 956 -1327 1059 -92 16 -466
29 -565 19z"/>
<path d="M48870 24124 c-377 -47 -705 -213 -1013 -513 -135 -131 -217 -230
-335 -402 -140 -205 -779 -989 -1102 -1354 -156 -175 -531 -554 -675 -680
-136 -119 -307 -255 -449 -358 -112 -80 -183 -125 -544 -345 -846 -516 -1554
-1260 -2116 -2222 -449 -768 -959 -2065 -1347 -3425 -359 -1256 -681 -2899
-798 -4075 -59 -586 -75 -957 -68 -1584 6 -505 16 -698 57 -1096 152 -1450
549 -2585 1220 -3485 289 -388 660 -764 1050 -1062 364 -278 562 -357 1005
-402 774 -79 1503 -76 2155 9 948 124 1856 432 2665 905 393 229 889 591 1330
968 616 528 1135 1112 1503 1692 269 425 715 1220 895 1595 325 680 456 1072
736 2195 394 1587 546 2871 470 3979 -5 77 -88 882 -184 1790 -173 1628 -176
1656 -236 1981 -251 1364 -472 2138 -821 2870 -200 420 -243 523 -398 965
-202 575 -326 823 -570 1140 -116 150 -382 409 -548 533 -350 261 -459 297
-1022 342 -107 9 -225 20 -261 25 -71 10 -542 21 -599 14z m-1057 -8269 c106
-22 200 -77 294 -171 71 -71 89 -96 137 -195 96 -199 114 -319 97 -624 -56
-963 -187 -1716 -424 -2420 -111 -329 -203 -548 -363 -865 -213 -422 -361
-629 -647 -907 -257 -249 -417 -333 -632 -333 -237 0 -431 134 -564 390 -80
154 -115 282 -181 668 l-42 242 37 243 c172 1125 375 1849 705 2507 228 456
447 758 797 1101 203 198 275 256 388 311 135 65 263 82 398 53z"/>
<path d="M20426 24065 c-420 -51 -863 -194 -1032 -334 -76 -64 -163 -172 -203
-254 -72 -147 -163 -780 -146 -1022 11 -154 23 -224 140 -775 344 -1619 570
-2542 880 -3600 300 -1023 461 -1675 895 -3615 205 -916 237 -1058 435 -1910
106 -457 244 -1069 560 -2480 456 -2039 555 -2420 901 -3480 163 -498 218
-616 344 -745 150 -152 331 -215 694 -240 81 -5 152 -13 157 -16 5 -3 141 -1
302 5 160 7 414 16 562 21 503 19 954 50 1090 76 210 39 342 162 402 374 26
92 26 529 0 703 -24 160 -123 606 -463 2087 -282 1228 -294 1284 -374 1749
-45 260 -47 237 26 276 l33 18 118 -105 c224 -200 283 -278 378 -508 31 -75
279 -572 893 -1785 678 -1341 826 -1628 1014 -1960 220 -390 290 -522 372
-707 35 -81 81 -172 101 -203 117 -183 293 -288 532 -316 272 -32 1210 18
1504 81 394 84 651 359 710 759 15 108 7 451 -16 616 -32 237 -94 509 -385
1695 -697 2843 -845 3630 -925 4930 -104 1704 34 3485 406 5230 173 808 414
1587 867 2800 163 436 189 537 199 755 9 218 -31 372 -136 522 -177 251 -497
397 -1163 528 -268 53 -743 125 -956 145 -269 25 -505 -69 -662 -263 -65 -80
-107 -163 -338 -667 -105 -228 -236 -509 -292 -625 -803 -1655 -1352 -3031
-1746 -4370 -35 -121 -67 -226 -69 -234 -3 -8 -20 15 -39 55 -101 210 -856
1677 -1039 2019 -246 461 -894 1608 -1349 2390 -323 554 -836 1401 -911 1501
-93 127 -296 334 -415 423 -330 249 -731 404 -1179 456 -157 18 -523 18 -677
0z"/>
<path d="M35400 23490 c-885 -83 -1676 -374 -2316 -854 -384 -287 -644 -565
-929 -996 -194 -293 -304 -497 -565 -1045 -95 -198 -200 -414 -235 -480 -83
-157 -175 -441 -394 -1205 -135 -474 -139 -489 -186 -863 -25 -191 -61 -450
-80 -575 -20 -125 -58 -371 -86 -546 -116 -743 -169 -1224 -199 -1811 -13
-247 -13 -986 0 -1246 43 -865 154 -1704 361 -2728 105 -521 192 -874 434
-1766 74 -275 189 -716 255 -980 273 -1098 488 -1786 780 -2490 283 -683 655
-1389 927 -1758 221 -300 661 -635 1138 -867 717 -348 1594 -521 2390 -470
774 50 1388 252 2015 665 500 328 816 697 983 1145 70 189 190 679 247 1012
105 617 116 965 101 3023 -32 4009 -25 3673 -86 4175 -61 491 -220 1442 -265
1585 -65 204 -177 396 -316 544 -194 207 -398 315 -647 343 -154 17 -684 14
-932 -6 -270 -22 -343 -33 -615 -101 -123 -31 -272 -63 -330 -71 -58 -8 -141
-21 -185 -30 -250 -50 -456 -196 -585 -414 -43 -73 -181 -385 -280 -631 -201
-503 -320 -965 -320 -1242 0 -93 22 -251 46 -334 102 -349 376 -615 812 -787
131 -52 270 -90 477 -131 422 -85 555 -140 701 -290 84 -88 117 -155 149 -305
165 -781 132 -1599 -96 -2438 -59 -216 -164 -524 -214 -627 -95 -197 -278
-335 -535 -402 -129 -35 -334 -36 -455 -4 -135 36 -233 90 -336 189 -301 286
-574 713 -737 1152 -64 173 -94 277 -192 667 -525 2103 -674 3919 -464 5643
97 797 292 1644 546 2364 142 403 305 713 636 1209 156 235 223 317 283 348
167 85 310 -105 483 -641 118 -367 196 -520 368 -726 165 -196 356 -327 549
-375 130 -33 226 -25 599 55 760 162 1184 261 1282 301 222 90 356 274 387
531 22 189 32 480 22 633 -38 530 -264 1375 -576 2151 -276 685 -466 1044
-716 1351 -516 631 -1271 1012 -2249 1135 -147 18 -703 27 -850 14z"/>
<path d="M8515 23355 c-671 -109 -1240 -553 -1525 -1192 -175 -393 -251 -841
-237 -1398 9 -341 32 -616 162 -1955 185 -1904 197 -2095 145 -2340 -28 -133
-90 -321 -140 -425 -106 -222 -312 -266 -458 -100 -48 55 -243 441 -296 586
-44 120 -81 261 -95 360 -17 122 -40 475 -51 769 -12 337 -12 1558 0 1920 42
1277 36 1768 -31 2235 -110 772 -410 1113 -1147 1300 -185 47 -302 59 -512 52
-191 -7 -288 -19 -605 -73 -249 -43 -394 -78 -530 -129 -481 -180 -898 -565
-1125 -1037 -118 -247 -169 -443 -195 -758 -29 -362 -127 -1681 -260 -3540
-74 -1037 -169 -2337 -210 -2890 -41 -553 -108 -1457 -150 -2010 -193 -2596
-268 -3728 -355 -5345 -22 -412 -51 -961 -65 -1220 -14 -258 -37 -668 -51
-910 -32 -548 -28 -686 31 -980 64 -316 192 -660 386 -1033 146 -280 232 -404
403 -581 354 -362 790 -586 1558 -796 108 -30 234 -59 280 -65 183 -26 426 19
796 145 871 296 1325 671 1656 1368 230 482 336 926 378 1582 18 270 18 1414
0 1705 -49 820 -115 1430 -252 2335 -147 967 -185 1382 -184 1985 1 854 83
1255 323 1578 108 145 313 317 475 399 65 33 159 42 203 20 44 -23 84 -73 146
-184 92 -164 155 -321 177 -441 26 -148 58 -631 91 -1365 17 -399 19 -498 9
-595 -18 -180 -24 -712 -11 -908 49 -704 222 -1375 551 -2144 93 -219 271
-574 337 -675 480 -731 1306 -1090 2231 -969 479 62 809 217 1202 564 105 92
407 367 557 507 283 263 484 577 606 951 120 367 161 655 160 1142 -2 1089
-168 2077 -1098 6520 -113 542 -321 1541 -461 2220 -400 1935 -654 3134 -755
3565 -146 621 -340 1288 -424 1465 -190 396 -555 666 -1040 770 -132 29 -464
37 -600 15z"/>
<path d="M15980 23220 c-36 -4 -200 -25 -365 -45 -367 -44 -532 -72 -746 -126
-647 -161 -1069 -406 -1333 -771 -116 -162 -182 -311 -305 -687 -260 -798
-482 -1528 -665 -2187 -164 -593 -268 -1069 -325 -1484 -49 -351 -60 -504 -71
-940 -5 -206 -14 -447 -20 -535 -12 -211 -13 -759 0 -921 15 -192 38 -345 72
-474 48 -181 55 -212 93 -440 71 -419 154 -813 385 -1845 336 -1498 457 -2127
555 -2900 101 -795 123 -1390 75 -1980 -32 -381 -35 -962 -7 -1115 36 -195 74
-280 179 -400 262 -299 566 -508 893 -613 147 -47 250 -66 430 -77 190 -12
219 -16 334 -46 339 -87 687 -41 1031 137 162 84 287 176 420 309 170 170 280
337 351 531 54 148 68 230 89 524 83 1166 80 1623 -20 3250 -32 506 -41 599
-91 918 -16 104 -29 194 -29 202 0 40 366 82 493 55 141 -29 255 -124 326
-273 57 -118 75 -201 126 -592 93 -713 137 -976 300 -1790 300 -1503 532
-2401 852 -3300 276 -774 530 -1294 808 -1650 256 -329 626 -497 1007 -457
193 21 1072 216 1296 288 227 73 427 194 518 315 97 127 135 242 141 436 7
189 -4 267 -98 718 -284 1348 -412 1905 -1123 4875 -771 3225 -1347 5434
-2597 9965 -333 1206 -362 1293 -540 1647 -175 346 -404 623 -724 879 -424
338 -774 510 -1190 585 -104 18 -426 27 -525 14z m165 -4692 c26 -29 67 -86
91 -128 159 -271 198 -575 199 -1545 l0 -560 -27 -46 c-64 -109 -230 -215
-415 -266 -82 -23 -119 -27 -228 -27 -165 -1 -217 15 -291 88 -75 76 -89 125
-88 301 4 461 117 1100 266 1509 88 241 251 561 332 653 32 37 80 69 108 72 3
1 27 -23 53 -51z"/>
<path d="M76230 11979 c-88 -11 -227 -45 -330 -81 -199 -69 -502 -239 -731
-410 -814 -605 -1288 -1452 -1455 -2598 -25 -177 -9 -463 42 -720 142 -724
563 -1210 1187 -1371 159 -41 307 -60 507 -66 373 -11 712 40 1080 164 1059
356 1884 1263 2125 2339 92 409 99 850 20 1238 -119 591 -462 997 -1018 1206
-131 49 -228 75 -382 101 -170 28 -237 46 -340 90 -237 100 -478 137 -705 108z"/>
</g>
</svg>
